# xmcd CD database file
#
# Track frame offsets:
#	150
#	16312
#	27487
#	48150
#	61987
#	77925
#	95775
#	110700
#	129337
#	143400
#	155250
#	174487
#	188512
#	204862
#
# Disc length: 3136 seconds
#
# Revision: 0
# Processed by: cddbd v1.4PL0 Copyright (c) Steve Scherf et al.
# Submitted via: CDex 1.40Release
#
DISCID=b00c3e0e
DTITLE=Johnny Hoy and The Bluefish - You Gonna Lose Your Head
DYEAR=1900
DGENRE=Blues
TTITLE0=You Better Listen
TTITLE1=Glad She's Gone
TTITLE2=Made For One Another
TTITLE3=Stand Tall
TTITLE4=Gong Gong
TTITLE5=Believer's Blues
TTITLE6=I Want To See Her
TTITLE7=Mellow Chick Swing
TTITLE8=Red Door
TTITLE9=Beer Bellied Man
TTITLE10=I Ain't Got No Home
TTITLE11=Nobody Else
TTITLE12=Can't Stand To Sleep Alone
TTITLE13=Just To Be With You
EXTD=ID3G: 0
EXTT0=
EXTT1=
EXTT2=
EXTT3=
EXTT4=
EXTT5=
EXTT6=
EXTT7=
EXTT8=
EXTT9=
EXTT10=
EXTT11=
EXTT12=
EXTT13=
PLAYORDER=
